<svg enable-background="new 0 0 391 159" viewBox="0 0 391 159" xmlns="http://www.w3.org/2000/svg"><path d="m15.3.4h143.4v159.1h-143.4z" fill="#3188c8"/><path d="m-.2 141.7 51.4-75.7 24.9-38.3 22.7-19.5 21.3-4.5-2.3-3.3h-118z" fill="#0b478d"/><path d="m-.2 141.7s14.5-21.5 28-49.5c0 0-6.5-15.5-2.5-31h-15l6-7.5h11.5s8-22 39-24.5c0 0 26.6-36.4 70.3-27.4 0 0 13.9 4.5-1.3 18.2 0 0-15.2 10.3-16.5-.2 0 0 2.1-13.7-4.9-12.9 0 0-14.8-.8-33.2 24.2 0 0 22.5 7.5 22.5 30.2l-39.6.2-15.8 27.4s19.1 21.4 45.4 3c0 0 3-13.5-11.6-14.8v-2.1h27.9v51.9s.9 13.7 20.2 10.3c0 0 12.3-1.5 12.7-11.6v-39.5s.6-6.4-13.5-8.1l.2-2.8h29.1v67.7l-14.1 4.1-.4-12.6s-20.2 21.8-40.9 9.9c0 0-9.6-4.1-9.2-18.4l-.4-24.2s-26.1 19.9-54.4 2.8l-22.3 38.6s-5.8 11.4 14.2 11.1l-3.4 5.2h-28z" fill="#fff"/><path d="m50.9 53.4 11.8-18.2s-18.6-1.7-23.1 18.2z" fill="#0b478d"/><path d="m69.5 53.4 6.9-13.7s5.8 4.1 6.4 13.7z" fill="#0b478d"/><path d="m39.7 70.5 5.8-9h-6.8z" fill="#0b478d"/><g fill="#094784"><path d="m186.7 47.4v16.3c0 2.3.3 3.8.8 4.4.7.8 1.6 1.2 2.7 1.2h2.2v1h-14.8v-1h1.1c.7 0 1.4-.2 2-.5.6-.4 1-.8 1.2-1.5.2-.6.3-1.8.3-3.6v-16.3h-4.8v-2h4.8v-1.6c0-2.5.4-4.6 1.2-6.3s2-3.1 3.6-4.2 3.5-1.6 5.5-1.6c1.9 0 3.6.6 5.2 1.8 1 .8 1.6 1.7 1.6 2.7 0 .5-.2 1.1-.7 1.5-.5.5-1 .7-1.5.7-.4 0-.9-.1-1.3-.4-.5-.3-1-.9-1.7-1.9s-1.3-1.6-1.8-2c-.6-.3-1.2-.5-1.9-.5-.8 0-1.5.2-2.1.7-.6.4-1 1.1-1.2 2.1-.3.9-.4 3.3-.4 7.2v1.8h6.4v2z"/><path d="m217.3 45.4v15c0 2.9.1 4.6.2 5.3.1.6.4 1.1.7 1.3.3.3.6.4 1 .4.6 0 1.2-.2 1.9-.5l.4.9-7.5 3.2h-1.2v-5.3c-2.1 2.3-3.8 3.8-4.9 4.4s-2.3.9-3.6.9c-1.4 0-2.6-.4-3.6-1.2s-1.7-1.8-2.1-3.1-.6-3.1-.6-5.4v-11c0-1.2-.1-2-.4-2.4-.3-.5-.6-.8-1.1-1s-1.4-.4-2.7-.3v-1h8.7v16.6c0 2.3.4 3.8 1.2 4.6.8.7 1.8 1.1 2.9 1.1.8 0 1.7-.2 2.6-.7 1-.5 2.2-1.4 3.5-2.8v-14.3c0-1.4-.3-2.4-.8-2.9s-1.6-.8-3.2-.8v-1z"/><path d="m230.5 50c2.9-3.5 5.7-5.3 8.3-5.3 1.4 0 2.5.3 3.5 1s1.8 1.8 2.3 3.3c.4 1.1.6 2.7.6 5v10.6c0 1.6.1 2.6.4 3.2.2.5.5.8 1 1.1.4.3 1.3.4 2.5.4v1h-12.3v-1h.5c1.2 0 2-.2 2.4-.5.5-.4.8-.9 1-1.6.1-.3.1-1.1.1-2.5v-10.2c0-2.3-.3-3.9-.9-4.9s-1.6-1.5-3-1.5c-2.2 0-4.3 1.2-6.4 3.5v13.1c0 1.7.1 2.7.3 3.1.3.5.6.9 1 1.2.4.2 1.3.4 2.7.4v1h-12.3v-1h.5c1.3 0 2.1-.3 2.6-1 .4-.6.7-1.9.7-3.7v-9.2c0-3-.1-4.8-.2-5.4-.1-.7-.3-1.1-.6-1.3s-.7-.4-1.1-.4c-.5 0-1.1.1-1.8.4l-.4-1 7.5-3h1.2v5.2z"/><path d="m268.5 67.5c-1.2 1.3-2.4 2.2-3.5 2.7s-2.4.8-3.7.8c-2.7 0-5.1-1.1-7.1-3.4s-3-5.2-3-8.7c0-3.6 1.1-6.8 3.4-9.8 2.2-3 5.1-4.4 8.6-4.4 2.2 0 4 .7 5.4 2.1v-4.6c0-2.8-.1-4.6-.2-5.2s-.3-1.1-.6-1.3-.7-.4-1.1-.4c-.5 0-1.1.1-1.9.4l-.4-.9 7.4-3h1.2v28.7c0 2.9.1 4.7.2 5.3s.4 1.1.7 1.3c.3.3.6.4 1 .4.5 0 1.1-.2 2-.5l.3.9-7.4 3.1h-1.2v-3.5zm0-1.9v-12.8c-.1-1.2-.4-2.3-1-3.4-.5-1-1.3-1.8-2.2-2.3s-1.8-.8-2.6-.8c-1.6 0-3 .7-4.3 2.1-1.6 1.9-2.5 4.6-2.5 8.2s.8 6.4 2.4 8.4c1.6 1.9 3.4 2.9 5.3 2.9 1.8.1 3.4-.7 4.9-2.3z"/><path d="m282.9 54.8c0 3.7.9 6.6 2.7 8.7s3.9 3.1 6.4 3.1c1.6 0 3-.4 4.2-1.3s2.2-2.4 3-4.6l.8.5c-.4 2.5-1.5 4.7-3.3 6.8-1.8 2-4.1 3-6.9 3-3 0-5.5-1.2-7.7-3.5-2.1-2.3-3.2-5.4-3.2-9.4 0-4.2 1.1-7.6 3.3-9.9 2.2-2.4 4.9-3.6 8.2-3.6 2.8 0 5.1.9 6.9 2.8 1.8 1.8 2.7 4.3 2.7 7.4zm0-1.6h11.5c-.1-1.6-.3-2.7-.6-3.4-.5-1-1.1-1.8-2-2.4s-1.8-.9-2.8-.9c-1.5 0-2.8.6-4 1.7-1.2 1.3-1.9 2.9-2.1 5z"/><path d="m325.1 45.4v15c0 2.9.1 4.6.2 5.3.1.6.4 1.1.7 1.3.3.3.6.4 1 .4.6 0 1.2-.2 1.9-.5l.4.9-7.4 3.1h-1.2v-5.3c-2.1 2.3-3.8 3.8-4.9 4.4s-2.3.9-3.6.9c-1.4 0-2.6-.4-3.6-1.2s-1.7-1.8-2.1-3.1-.6-3.1-.6-5.4v-10.9c0-1.2-.1-2-.4-2.4-.3-.5-.6-.8-1.1-1s-1.4-.4-2.7-.3v-1h8.7v16.6c0 2.3.4 3.8 1.2 4.6s1.8 1.1 2.9 1.1c.8 0 1.7-.2 2.6-.7 1-.5 2.2-1.4 3.5-2.8v-14.3c0-1.4-.3-2.4-.8-2.9s-1.6-.8-3.2-.8v-1z"/><path d="m338.4 50c2.9-3.5 5.7-5.3 8.3-5.3 1.4 0 2.5.3 3.5 1s1.8 1.8 2.3 3.3c.4 1.1.6 2.7.6 5v10.6c0 1.6.1 2.6.4 3.2.2.5.5.8 1 1.1.4.3 1.3.4 2.5.4v1h-12.3v-1h.5c1.2 0 2-.2 2.4-.5.5-.4.8-.9 1-1.6.1-.3.1-1.1.1-2.5v-10.2c0-2.3-.3-3.9-.9-4.9s-1.6-1.5-3-1.5c-2.2 0-4.3 1.2-6.4 3.5v13.1c0 1.7.1 2.7.3 3.1.3.5.6.9 1 1.2.4.2 1.3.4 2.7.4v1h-12.3v-1h.5c1.3 0 2.1-.3 2.6-1 .4-.6.7-1.9.7-3.7v-9.2c0-3-.1-4.8-.2-5.4-.1-.7-.3-1.1-.6-1.3s-.7-.4-1.1-.4c-.5 0-1.1.1-1.8.4l-.4-1 7.5-3h1.2v5.2z"/><path d="m181.3 86.9v4.7h2.2c.5 0 .9-.1 1.1-.3s.4-.7.5-1.3h.3v4h-.4c0-.5-.1-.8-.2-1s-.3-.4-.5-.5-.5-.2-.9-.2h-2.2v3.7c0 .6 0 1 .1 1.2.1.1.2.3.4.4.3.1.5.2.8.2h.4v.3h-5.1v-.3h.4c.5 0 .8-.1 1.1-.4.1-.2.2-.6.2-1.4v-7.7c0-.6 0-1-.1-1.2-.1-.1-.2-.3-.4-.4-.3-.1-.5-.2-.8-.2h-.4v-.3h8.9l.1 2.6h-.3c-.2-.6-.3-1-.5-1.2s-.5-.4-.7-.6-.8-.2-1.4-.2h-2.6z"/><path d="m196.2 86.5v-.3h4.2v.3h-.4c-.5 0-.8.2-1.1.6-.1.2-.2.6-.2 1.3v4.8c0 1.2-.1 2.1-.4 2.8s-.7 1.2-1.4 1.7-1.6.7-2.8.7c-1.3 0-2.3-.2-3-.7s-1.2-1.1-1.4-1.8c-.2-.5-.3-1.5-.3-2.9v-4.7c0-.7-.1-1.2-.3-1.4s-.5-.3-1-.3h-.4v-.3h5.2v.3h-.5c-.5 0-.8.2-1.1.5-.1.2-.2.7-.2 1.3v5.2c0 .5 0 1 .1 1.6s.2 1.1.5 1.4.5.6 1 .8.9.3 1.5.3c.8 0 1.5-.2 2.1-.5s1-.8 1.3-1.3.3-1.4.3-2.7v-4.8c0-.7-.1-1.2-.2-1.4-.2-.3-.6-.4-1-.4h-.5z"/><path d="m200.4 86.2h3.2l7.3 8.9v-6.9c0-.7-.1-1.2-.2-1.4-.2-.2-.6-.4-1-.4h-.4v-.3h4.1v.3h-.4c-.5 0-.9.2-1.1.5-.1.2-.2.6-.2 1.3v10h-.3l-7.9-9.6v7.3c0 .7.1 1.2.2 1.4.2.2.6.4 1 .4h.4v.3h-4.1v-.3h.4c.5 0 .9-.2 1.1-.5.1-.2.2-.6.2-1.3v-8.3c-.3-.4-.6-.7-.8-.8s-.4-.2-.8-.4c-.2-.1-.4-.1-.8-.1v-.1z"/><path d="m213.9 98.1v-.3h.4c.5 0 .9-.2 1.1-.5.1-.2.2-.6.2-1.3v-7.7c0-.7-.1-1.2-.2-1.4-.2-.3-.6-.4-1-.4h-.4v-.3h4.9c1.8 0 3.1.2 4.1.6s1.7 1.1 2.2 2 .8 2 .8 3.3c0 1.7-.5 3-1.5 4.2-1.1 1.2-2.9 1.9-5.2 1.9h-5.4zm3.4-.8c.7.2 1.4.2 1.9.2 1.4 0 2.5-.5 3.4-1.4s1.3-2.2 1.3-3.9c0-1.6-.4-2.9-1.3-3.9s-2-1.4-3.5-1.4c-.5 0-1.1.1-1.8.3z"/><path d="m234.9 94.1h-4.6l-.8 1.9c-.2.5-.3.8-.3 1s.1.3.3.5.5.2 1.1.3v.3h-3.8v-.3c.5-.1.8-.2 1-.3.3-.3.6-.9 1-1.7l4.2-9.8h.3l4.1 9.9c.3.8.6 1.3.9 1.6s.7.4 1.1.4v.3h-4.7v-.3c.5 0 .8-.1 1-.2s.3-.3.3-.5c0-.3-.1-.7-.4-1.2zm-.3-.6-2-4.8-2.1 4.8z"/><path d="m250.5 85.9.3 4.1h-.3c-.4-1.2-.9-2.1-1.6-2.6s-1.5-.8-2.4-.8c-.8 0-1.5.2-2.1.6s-1.1 1-1.5 1.9-.5 2-.5 3.3c0 1.1.2 2 .5 2.8s.9 1.4 1.6 1.8 1.5.6 2.4.6c.8 0 1.5-.2 2-.5s1.2-1 2-2l.3.2c-.6 1.1-1.3 1.8-2.1 2.3s-1.7.7-2.8.7c-2 0-3.5-.7-4.6-2.2-.8-1.1-1.2-2.4-1.2-3.8 0-1.2.3-2.3.8-3.3s1.3-1.8 2.2-2.3 2-.8 3.1-.8c.9 0 1.7.2 2.5.6.2.1.4.2.5.2.2 0 .3-.1.4-.2.2-.2.3-.4.3-.7h.2z"/><path d="m257.2 97.8v.3h-5.1v-.3h.4c.5 0 .8-.1 1.1-.4.1-.2.2-.6.2-1.4v-7.7c0-.6 0-1-.1-1.2-.1-.1-.2-.3-.4-.4-.3-.1-.5-.2-.8-.2h-.4v-.3h5.1v.3h-.4c-.5 0-.8.1-1.1.4-.1.2-.2.6-.2 1.4v7.7c0 .6 0 1 .1 1.2.1.1.2.3.4.4.3.1.5.2.8.2z"/><path d="m264.2 85.9c1.5 0 2.9.6 4 1.8s1.7 2.6 1.7 4.4-.6 3.3-1.7 4.5-2.5 1.8-4.1 1.8-3-.6-4.1-1.7c-1.1-1.2-1.7-2.7-1.7-4.5 0-1.9.6-3.4 1.9-4.6 1.1-1.1 2.5-1.7 4-1.7zm-.2.7c-1.1 0-1.9.4-2.6 1.2-.8 1-1.2 2.4-1.2 4.3s.4 3.4 1.2 4.5c.6.8 1.5 1.2 2.5 1.2 1.1 0 2-.4 2.8-1.3.7-.9 1.1-2.2 1.1-4.1 0-2-.4-3.6-1.2-4.6-.5-.8-1.4-1.2-2.6-1.2zm2-4.3-2.6 3h-.3l.9-3z"/><path d="m270.4 86.2h3.2l7.3 8.9v-6.9c0-.7-.1-1.2-.2-1.4-.2-.2-.6-.4-1-.4h-.4v-.3h4.1v.3h-.4c-.5 0-.9.2-1.1.5-.1.2-.2.6-.2 1.3v10h-.3l-7.9-9.6v7.3c0 .7.1 1.2.2 1.4.2.2.6.4 1 .4h.4v.3h-4.1v-.3h.4c.5 0 .9-.2 1.1-.5.1-.2.2-.6.2-1.3v-8.3c-.3-.4-.6-.7-.8-.8s-.4-.2-.8-.4c-.2-.1-.4-.1-.8-.1v-.1z"/><path d="m181.4 108.5v4.7h2.6c.7 0 1.1-.1 1.4-.3.3-.3.5-.7.5-1.4h.3v4.1h-.3c-.1-.6-.2-1-.2-1.1-.1-.2-.3-.4-.5-.5s-.6-.2-1.1-.2h-2.6v3.9c0 .5 0 .8.1 1s.1.2.2.3.3.1.7.1h2c.7 0 1.2 0 1.5-.1s.6-.3.9-.6c.4-.4.7-.9 1.1-1.6h.4l-1 3h-9.4v-.3h.4c.3 0 .5-.1.8-.2.2-.1.3-.2.4-.4s.1-.6.1-1.2v-7.7c0-.8-.1-1.2-.2-1.4-.2-.2-.6-.4-1.1-.4h-.4v-.3h9.2l.1 2.6h-.3c-.1-.6-.3-1.1-.4-1.3s-.4-.4-.7-.5c-.2-.1-.6-.1-1.2-.1h-3.3z"/><path d="m196 119.7-4.6-10v8c0 .7.1 1.2.2 1.4.2.2.6.4 1 .4h.4v.3h-4.1v-.3h.4c.5 0 .9-.2 1.1-.5.1-.2.2-.6.2-1.3v-7.8c0-.5-.1-.9-.2-1.1s-.2-.3-.5-.4-.6-.2-1.1-.2v-.3h3.4l4.3 9.3 4.3-9.3h3.4v.3h-.4c-.5 0-.9.2-1.1.5-.1.2-.2.6-.2 1.3v7.8c0 .7.1 1.2.2 1.4.2.2.6.4 1 .4h.4v.3h-5.1v-.3h.4c.5 0 .9-.2 1.1-.5.1-.2.2-.6.2-1.3v-8l-4.6 10h-.1z"/><path d="m208.3 114.1v3.5c0 .8.1 1.2.2 1.4.2.3.6.4 1 .4h.5v.3h-5.1v-.3h.4c.5 0 .9-.2 1.1-.5.1-.2.2-.6.2-1.3v-7.7c0-.8-.1-1.2-.2-1.4-.2-.3-.6-.4-1-.4h-.4v-.3h4.4c1.1 0 1.9.1 2.5.3s1.1.6 1.6 1.1.6 1.1.6 1.9c0 1-.3 1.8-1 2.4s-1.5.9-2.7.9c-.3 0-.6 0-.9-.1s-.8-.1-1.2-.2zm0-.5c.3.1.6.1.8.1s.4 0 .6 0c.6 0 1.1-.2 1.6-.7s.7-1.1.7-1.8c0-.5-.1-1-.3-1.4s-.5-.8-.9-1-.8-.3-1.3-.3c-.3 0-.7.1-1.2.2z"/><path d="m226.8 119.7h-3.2l-4-5.6c-.3 0-.5 0-.7 0-.1 0-.2 0-.2 0s-.2 0-.3 0v3.5c0 .8.1 1.2.2 1.4.2.3.6.4 1 .4h.5v.3h-5.1v-.3h.4c.5 0 .9-.2 1.1-.5.1-.2.2-.6.2-1.3v-7.7c0-.8-.1-1.2-.2-1.4-.2-.3-.6-.4-1-.4h-.4v-.3h4.3c1.3 0 2.2.1 2.8.3s1.1.5 1.5 1 .6 1.1.6 1.8-.2 1.4-.7 1.9-1.2.9-2.2 1.1l2.5 3.4c.6.8 1 1.3 1.5 1.6s.9.4 1.6.5v.3zm-8.5-6.1h.3s.1 0 .2 0c1.1 0 2-.2 2.6-.7s.9-1.1.9-1.9c0-.7-.2-1.3-.7-1.8s-1.1-.7-1.9-.7c-.3 0-.8.1-1.4.2z"/><path d="m230.4 108.5v4.7h2.6c.7 0 1.1-.1 1.4-.3.3-.3.5-.7.5-1.4h.3v4.1h-.3c-.1-.6-.2-1-.2-1.1-.1-.2-.3-.4-.5-.5s-.6-.2-1.1-.2h-2.6v3.9c0 .5 0 .8.1 1s.1.2.2.3.3.1.7.1h2c.7 0 1.2 0 1.5-.1s.6-.3.9-.6c.4-.4.7-.9 1.1-1.6h.4l-1 3h-9.4v-.3h.4c.3 0 .5-.1.8-.2.2-.1.3-.2.4-.4s.1-.6.1-1.2v-7.7c0-.8-.1-1.2-.2-1.4-.2-.2-.6-.4-1.1-.4h-.4v-.3h9.2l.1 2.6h-.3c-.1-.6-.3-1.1-.4-1.3s-.4-.4-.7-.5c-.2-.1-.6-.1-1.2-.1h-3.3z"/><path d="m245.9 107.5v4.1h-.3c-.1-.8-.3-1.4-.6-1.9s-.7-.8-1.2-1.1-1-.4-1.6-.4-1.1.2-1.5.6-.6.8-.6 1.3c0 .4.1.7.4 1 .4.4 1.2 1 2.6 1.8 1.1.6 1.9 1.1 2.3 1.4s.7.7.9 1.1.3.9.3 1.4c0 .9-.4 1.7-1 2.3-.7.7-1.6 1-2.7 1-.3 0-.7 0-1-.1-.2 0-.6-.1-1.1-.3s-.9-.3-1.1-.3c-.1 0-.3 0-.3.1s-.1.3-.2.5h-.3v-4.1h.3c.2.9.4 1.5.6 1.9s.7.8 1.2 1.1 1.1.4 1.7.4c.7 0 1.3-.2 1.7-.6s.6-.8.6-1.4c0-.3-.1-.6-.2-.9-.2-.3-.4-.6-.8-.8-.2-.2-.9-.5-1.9-1.1s-1.7-1-2.2-1.4-.8-.7-1-1.1-.3-.9-.3-1.4c0-.9.3-1.6 1-2.2s1.5-.9 2.5-.9c.6 0 1.3.2 2 .5.3.1.6.2.7.2.2 0 .3 0 .4-.1s.2-.3.2-.5h.5z"/><path d="m255.9 115.7h-4.6l-.8 1.9c-.2.5-.3.8-.3 1s.1.3.3.5c.2.1.5.2 1.1.3v.3h-3.8v-.3c.5-.1.8-.2 1-.3.3-.3.6-.9 1-1.7l4.2-9.8h.3l4.1 9.9c.3.8.6 1.3.9 1.6.3.2.7.4 1.1.4v.3h-4.7v-.3c.5 0 .8-.1 1-.2s.3-.3.3-.5c0-.3-.1-.7-.4-1.2zm-.3-.6-2-4.8-2.1 4.8z"/><path d="m272.7 108.1v-.3h4.2v.3h-.4c-.5 0-.8.2-1.1.6-.1.2-.2.6-.2 1.3v4.8c0 1.2-.1 2.1-.4 2.8-.2.7-.7 1.2-1.4 1.7s-1.6.7-2.8.7c-1.3 0-2.3-.2-3-.7s-1.2-1.1-1.4-1.8c-.2-.5-.3-1.5-.3-2.9v-4.7c0-.7-.1-1.2-.3-1.4s-.5-.3-1-.3h-.4v-.3h5.2v.3h-.5c-.5 0-.8.2-1.1.5-.1.2-.2.7-.2 1.3v5.2c0 .5 0 1 .1 1.6s.2 1.1.5 1.4.5.6 1 .8.9.3 1.5.3c.8 0 1.5-.2 2.1-.5s1-.8 1.3-1.3c.2-.5.3-1.4.3-2.7v-4.8c0-.7-.1-1.2-.2-1.4-.2-.3-.6-.4-1-.4h-.5z"/><path d="m276.9 107.8h3.2l7.3 8.9v-6.9c0-.7-.1-1.2-.2-1.4-.2-.2-.6-.4-1-.4h-.4v-.3h4.1v.3h-.4c-.5 0-.9.2-1.1.5-.1.2-.2.6-.2 1.3v10h-.3l-7.9-9.6v7.3c0 .7.1 1.2.2 1.4.2.2.6.4 1 .4h.4v.3h-4.1v-.3h.4c.5 0 .9-.2 1.1-.5.1-.2.2-.6.2-1.3v-8.3c-.3-.4-.6-.7-.8-.8s-.4-.2-.8-.4c-.2-.1-.4-.1-.8-.1v-.1z"/><path d="m295.7 119.4v.3h-5.1v-.3h.4c.5 0 .8-.1 1.1-.4.1-.2.2-.6.2-1.4v-7.7c0-.6 0-1-.1-1.2-.1-.1-.2-.3-.4-.4-.3-.1-.5-.2-.8-.2h-.4v-.3h5.1v.3h-.4c-.5 0-.8.1-1.1.4-.1.2-.2.6-.2 1.4v7.7c0 .6 0 1 .1 1.2.1.1.2.3.4.4.3.1.5.2.8.2z"/><path d="m308.9 107.8v.3c-.4.1-.7.2-1 .4-.3.3-.6.7-.8 1.3l-4.1 10.2h-.3l-4.5-10.3c-.2-.5-.4-.8-.5-1s-.3-.3-.5-.4-.5-.2-.9-.2v-.3h4.9v.3c-.6.1-.9.1-1.1.3s-.2.3-.2.5c0 .3.1.8.4 1.4l3 7 2.8-6.9c.3-.7.4-1.2.4-1.4s-.1-.3-.3-.5-.5-.3-.9-.3h-.1v-.3h3.7z"/><path d="m312.9 108.5v4.7h2.6c.7 0 1.1-.1 1.4-.3.3-.3.5-.7.5-1.4h.3v4.1h-.3c-.1-.6-.2-1-.2-1.1-.1-.2-.3-.4-.5-.5s-.6-.2-1.1-.2h-2.6v3.9c0 .5 0 .8.1 1s.1.2.2.3.3.1.7.1h2c.7 0 1.2 0 1.5-.1s.6-.3.9-.6c.4-.4.7-.9 1.1-1.6h.4l-1 3h-9.2v-.3h.4c.3 0 .5-.1.8-.2.2-.1.3-.2.4-.4s.1-.6.1-1.2v-7.7c0-.8-.1-1.2-.2-1.4-.2-.2-.6-.4-1.1-.4h-.4v-.3h9.2l.1 2.6h-.3c-.1-.6-.3-1.1-.4-1.3s-.4-.4-.7-.5c-.2-.1-.6-.1-1.2-.1h-3.5z"/><path d="m332.3 119.7h-3.2l-4-5.6c-.3 0-.5 0-.7 0-.1 0-.2 0-.2 0s-.2 0-.3 0v3.5c0 .8.1 1.2.2 1.4.2.3.6.4 1 .4h.5v.3h-5.1v-.3h.4c.5 0 .9-.2 1.1-.5.1-.2.2-.6.2-1.3v-7.7c0-.8-.1-1.2-.2-1.4-.2-.3-.6-.4-1-.4h-.4v-.3h4.3c1.3 0 2.2.1 2.8.3s1.1.5 1.5 1 .6 1.1.6 1.8-.2 1.4-.7 1.9-1.2.9-2.2 1.1l2.5 3.4c.6.8 1 1.3 1.5 1.6s.9.4 1.6.5v.3zm-8.5-6.1h.3s.1 0 .2 0c1.1 0 2-.2 2.6-.7s.9-1.1.9-1.9c0-.7-.2-1.3-.7-1.8s-1.1-.7-1.8-.7c-.3 0-.8.1-1.4.2v4.9z"/><path d="m340.4 107.5v4.1h-.3c-.1-.8-.3-1.4-.6-1.9s-.7-.8-1.2-1.1-1-.4-1.6-.4-1.1.2-1.5.6-.6.8-.6 1.3c0 .4.1.7.4 1 .4.4 1.2 1 2.6 1.8 1.1.6 1.9 1.1 2.3 1.4s.7.7.9 1.1.3.9.3 1.4c0 .9-.4 1.7-1 2.3-.7.7-1.6 1-2.7 1-.3 0-.7 0-1-.1-.2 0-.6-.1-1.1-.3-.6-.2-.9-.3-1.1-.3-.1 0-.3 0-.3.1-.1.1-.1.3-.2.5h-.3v-4.1h.3c.2.9.4 1.5.6 1.9s.7.8 1.2 1.1 1.1.4 1.7.4c.7 0 1.3-.2 1.7-.6s.6-.8.6-1.4c0-.3-.1-.6-.2-.9-.2-.3-.4-.6-.8-.8-.2-.2-.9-.5-1.9-1.1s-1.7-1-2.2-1.4c-.4-.3-.8-.7-1-1.1s-.3-.9-.3-1.4c0-.9.3-1.6 1-2.2s1.5-.9 2.5-.9c.6 0 1.3.2 2 .5.3.1.6.2.7.2.2 0 .3 0 .4-.1s.2-.3.2-.5h.5z"/><path d="m347.7 119.4v.3h-5.1v-.3h.4c.5 0 .8-.1 1.1-.4.1-.2.2-.6.2-1.4v-7.7c0-.6 0-1-.1-1.2-.1-.1-.2-.3-.4-.4-.3-.1-.5-.2-.8-.2h-.4v-.3h5.1v.3h-.4c-.5 0-.8.1-1.1.4-.1.2-.2.6-.2 1.4v7.7c0 .6 0 1 .1 1.2.1.1.2.3.4.4.3.1.5.2.8.2z"/><path d="m348.5 119.7v-.3h.4c.5 0 .9-.2 1.1-.5.1-.2.2-.6.2-1.3v-7.7c0-.7-.1-1.2-.2-1.4-.2-.3-.6-.4-1-.4h-.4v-.3h4.9c1.8 0 3.1.2 4.1.6.9.4 1.7 1.1 2.2 2s.8 2 .8 3.3c0 1.7-.5 3-1.5 4.2-1.1 1.2-2.9 1.9-5.2 1.9h-5.4zm3.4-.8c.7.2 1.4.2 1.9.2 1.4 0 2.5-.5 3.4-1.4s1.3-2.2 1.3-3.9c0-1.6-.4-2.9-1.3-3.9s-2-1.4-3.5-1.4c-.5 0-1.1.1-1.8.3z"/><path d="m369.4 115.7h-4.6l-.8 1.9c-.2.5-.3.8-.3 1s.1.3.3.5c.2.1.5.2 1.1.3v.3h-3.8v-.3c.5-.1.8-.2 1-.3.3-.3.6-.9 1-1.7l4.2-9.8h.3l4.1 9.9c.3.8.6 1.3.9 1.6.3.2.7.4 1.1.4v.3h-4.7v-.3c.5 0 .8-.1 1-.2s.3-.3.3-.5c0-.3-.1-.7-.4-1.2zm-.3-.6-2-4.8-2.1 4.8z"/><path d="m374.5 119.7v-.3h.4c.5 0 .9-.2 1.1-.5.1-.2.2-.6.2-1.3v-7.7c0-.7-.1-1.2-.2-1.4-.2-.3-.6-.4-1-.4h-.4v-.3h4.9c1.8 0 3.1.2 4.1.6.9.4 1.7 1.1 2.2 2s.8 2 .8 3.3c0 1.7-.5 3-1.5 4.2-1.1 1.2-2.9 1.9-5.2 1.9h-5.4zm3.4-.8c.7.2 1.4.2 1.9.2 1.4 0 2.5-.5 3.4-1.4s1.3-2.2 1.3-3.9c0-1.6-.4-2.9-1.3-3.9s-2-1.4-3.5-1.4c-.5 0-1.1.1-1.8.3z"/><path d="m177.9 141.3v-.3h.4c.5 0 .9-.2 1.1-.5.1-.2.2-.6.2-1.3v-7.7c0-.7-.1-1.2-.2-1.4-.2-.3-.6-.4-1-.4h-.4v-.3h4.9c1.8 0 3.1.2 4.1.6s1.7 1.1 2.2 2 .8 2 .8 3.3c0 1.7-.5 3-1.5 4.2-1.1 1.2-2.9 1.9-5.2 1.9h-5.4zm3.4-.8c.7.2 1.4.2 1.9.2 1.4 0 2.5-.5 3.4-1.4s1.3-2.2 1.3-3.9c0-1.6-.4-2.9-1.3-3.9s-2-1.4-3.5-1.4c-.5 0-1.1.1-1.8.3z"/><path d="m194.4 130.1v4.7h2.6c.7 0 1.1-.1 1.4-.3.3-.3.5-.7.5-1.4h.3v4.1h-.3c-.1-.6-.2-1-.2-1.1-.1-.2-.3-.4-.5-.5s-.6-.2-1.1-.2h-2.6v3.9c0 .5 0 .8.1 1s.1.2.2.3.3.1.7.1h2c.7 0 1.2 0 1.5-.1s.6-.3.9-.6c.4-.4.7-.9 1.1-1.6h.4l-1 3h-9.4v-.4h.4c.3 0 .5-.1.8-.2.2-.1.3-.2.4-.4s.1-.6.1-1.2v-7.7c0-.8-.1-1.2-.2-1.4-.2-.2-.6-.4-1.1-.4h-.4v-.3h9.2l.1 2.6h-.3c-.1-.6-.3-1.1-.4-1.3s-.4-.4-.7-.5c-.2-.1-.6-.1-1.2-.1z"/><path d="m213.4 137.3h-4.6l-.8 1.9c-.2.5-.3.8-.3 1s.1.3.3.5.5.2 1.1.3v.3h-3.8v-.3c.5-.1.8-.2 1-.3.3-.3.6-.9 1-1.7l4.2-9.8h.3l4.1 9.9c.3.8.6 1.3.9 1.6s.7.4 1.1.4v.3h-4.7v-.4c.5 0 .8-.1 1-.2s.3-.3.3-.5c0-.3-.1-.7-.4-1.2zm-.3-.6-2-4.8-2.1 4.8z"/><path d="m228.4 138 .3.1-1 3.2h-9.2v-.3h.4c.5 0 .9-.2 1.1-.5.1-.2.2-.6.2-1.3v-7.7c0-.7-.1-1.2-.2-1.4-.2-.3-.6-.4-1-.4h-.4v-.3h5.4v.3c-.6 0-1.1.1-1.3.2s-.4.3-.5.5-.1.6-.1 1.3v7.5c0 .5 0 .8.1 1l.3.3s.6.1 1.4.1h.9c.9 0 1.6-.1 1.9-.2s.7-.4 1-.7.4-.9.7-1.7z"/><path d="m234.7 141v.3h-5.1v-.3h.4c.5 0 .8-.1 1.1-.4.1-.2.2-.6.2-1.4v-7.7c0-.6 0-1-.1-1.2-.1-.1-.2-.3-.4-.4-.3-.1-.5-.2-.8-.2h-.4v-.3h5.1v.3h-.4c-.5 0-.8.1-1.1.4-.1.2-.2.6-.2 1.4v7.7c0 .6 0 1 .1 1.2.1.1.2.3.4.4.3.1.5.2.8.2z"/><path d="m245.9 129.1.3 4.1h-.3c-.4-1.2-.9-2.1-1.6-2.6s-1.5-.8-2.4-.8c-.8 0-1.5.2-2.1.6s-1.1 1-1.5 1.9-.5 2-.5 3.3c0 1.1.2 2 .5 2.8s.9 1.4 1.6 1.8 1.5.6 2.4.6c.8 0 1.5-.2 2-.5s1.2-1 2-2l.3.2c-.6 1.1-1.3 1.8-2.1 2.3s-1.7.7-2.8.7c-2 0-3.5-.7-4.6-2.2-.8-1.1-1.2-2.4-1.2-3.8 0-1.2.3-2.3.8-3.3s1.3-1.8 2.2-2.3 2-.8 3.1-.8c.9 0 1.7.2 2.5.6.2.1.4.2.5.2.2 0 .3-.1.4-.2.2-.2.3-.4.3-.7h.2z"/><path d="m255.4 137.3h-4.6l-.8 1.9c-.2.5-.3.8-.3 1s.1.3.3.5c.2.1.5.2 1.1.3v.3h-3.8v-.3c.5-.1.8-.2 1-.3.3-.3.6-.9 1-1.7l4.2-9.8h.3l4.1 9.9c.3.8.6 1.3.9 1.6.3.2.7.4 1.1.4v.3h-4.7v-.4c.5 0 .8-.1 1-.2s.3-.3.3-.5c0-.3-.1-.7-.4-1.2zm-.3-.6-2-4.8-2.1 4.8z"/><path d="m259.9 129.4h3.2l7.3 8.9v-6.9c0-.7-.1-1.2-.2-1.4-.2-.2-.6-.4-1-.4h-.4v-.3h4.1v.3h-.4c-.5 0-.9.2-1.1.5-.1.2-.2.6-.2 1.3v10h-.3l-7.9-9.6v7.3c0 .7.1 1.2.2 1.4.2.2.6.4 1 .4h.4v.3h-4.1v-.2h.4c.5 0 .9-.2 1.1-.5.1-.2.2-.6.2-1.3v-8.2c-.3-.4-.6-.7-.8-.8s-.4-.2-.8-.4c-.2-.1-.4-.1-.8-.1v-.3z"/><path d="m283.5 129.4.1 2.8h-.3c-.1-.5-.2-.8-.3-1.1-.2-.3-.4-.6-.7-.8s-.7-.2-1.2-.2h-1.7v9.1c0 .7.1 1.2.2 1.4.2.2.6.4 1 .4h.4v.3h-5.1v-.3h.4c.5 0 .9-.2 1.1-.5.1-.2.2-.6.2-1.3v-9.1h-1.4c-.6 0-1 0-1.2.1-.3.1-.6.3-.8.6s-.3.7-.4 1.3h-.3l.1-2.8h9.9z"/><path d="m287.9 130.1v4.7h2.6c.7 0 1.1-.1 1.4-.3.3-.3.5-.7.5-1.4h.3v4.1h-.3c-.1-.6-.2-1-.2-1.1-.1-.2-.3-.4-.5-.5s-.6-.2-1.1-.2h-2.6v3.9c0 .5 0 .8.1 1s.1.2.2.3.3.1.7.1h2c.7 0 1.2 0 1.5-.1s.6-.3.9-.6c.4-.4.7-.9 1.1-1.6h.4l-1 3h-9.2v-.4h.4c.3 0 .5-.1.8-.2.2-.1.3-.2.4-.4s.1-.6.1-1.2v-7.7c0-.8-.1-1.2-.2-1.4-.2-.2-.6-.4-1.1-.4h-.4v-.3h9.2l.1 2.6h-.3c-.1-.6-.3-1.1-.4-1.3s-.4-.4-.7-.5c-.2-.1-.6-.1-1.2-.1z"/></g></svg>