<?xml version="1.0" encoding="UTF-8"?>
<svg xmlns="http://www.w3.org/2000/svg" viewBox="0 0 664.08 113.68">
  <defs>
    <style>.cls-1{fill:#151922;}</style>
  </defs>
  <title>logo-emprendedores-black</title>
  <g id="Capa_2" data-name="Capa 2">
    <g id="svg2">
      <g id="g10">
        <g id="g12">
          <path id="path14" class="cls-1" d="M307.5,23.05a19.41,19.41,0,0,0-12.58,4.89,21.46,21.46,0,0,0-3.61,3.77c-.37.5-.78,1.08-1.21,1.75V22.59l-1.62.36c-1.54.34-2.83.6-3.84.77s-1.95.33-2.84.45a25.1,25.1,0,0,1-2.74.25c-1,0-2.28.07-3.84.07h-1.33v67.3H290.1V51.26a17.89,17.89,0,0,1,.53-4.15A35.07,35.07,0,0,1,292,42.55a23.67,23.67,0,0,1,2.08-4.15,23.32,23.32,0,0,1,2.47-3.25,6.57,6.57,0,0,1,4.81-2.1c1.72,0,2.86.49,3.51,1.49.52.81,1.14,2.57,1.14,6.36V91.79h16V39.72c0-5-1.3-9.09-3.87-12.08a13.4,13.4,0,0,0-10.66-4.59"></path>
          <path id="path16" class="cls-1" d="M261.37,67.77c.22,2.22.33,4.12.33,5.64a14.36,14.36,0,0,1-3.09,9.5,9.52,9.52,0,0,1-7.7,3.59,9.92,9.92,0,0,1-4.76-1.22,7.85,7.85,0,0,1-3.26-3.08,22.85,22.85,0,0,1-1.61-3.54,25.19,25.19,0,0,1-1.08-4.36,52.56,52.56,0,0,1-.6-6.13c-.1-2.08-.19-4.63-.26-7.59h30.33V59.25c0-3.93-.13-7.48-.4-10.54a49.7,49.7,0,0,0-1.33-8.15,30,30,0,0,0-2.49-6.45,26.5,26.5,0,0,0-3.8-5.38,17.21,17.21,0,0,0-6.17-4.27,19.44,19.44,0,0,0-7.57-1.54,21.16,21.16,0,0,0-10.58,2.72,24.38,24.38,0,0,0-8.13,7.63,38.26,38.26,0,0,0-5.09,11.54,57.3,57.3,0,0,0-1.79,14.83c0,10.57,2.27,18.88,6.76,24.68s11.14,8.91,19.51,8.91a24.35,24.35,0,0,0,11.51-2.58,17,17,0,0,0,7.4-7.47,21.1,21.1,0,0,0,1.87-5.6,59.91,59.91,0,0,0,.75-7.91l.05-1-9-2.9Zm-14-37.86c.91,0,3.67,0,5.42,5.6a39.12,39.12,0,0,1,1.31,7.16c.27,2.62.48,6.07.63,10.27H239.36c.07-2.16.17-4,.29-5.58.15-1.86.3-3.46.45-4.81s.31-2.41.5-3.29.38-1.69.58-2.4a14,14,0,0,1,2.88-5.33,4.52,4.52,0,0,1,3.35-1.62"></path>
          <path id="path18" class="cls-1" d="M17.9,46.56H41.6v-8.7H17.9v-27h28V1.68H0V91.79H50.07V82.7H17.9V46.56"></path>
          <path id="path20" class="cls-1" d="M112.47,22.78A16.78,16.78,0,0,0,102.41,26,27.32,27.32,0,0,0,96,33.05a17.82,17.82,0,0,0-3.85-7c-2-2.05-4.87-3.08-8.46-3.08a17,17,0,0,0-10,3.06,26.16,26.16,0,0,0-5.81,6.1v-9.5L66.16,23l-3.86.85a23.07,23.07,0,0,1-2.7.43c-.87.09-1.82.15-2.83.19s-2.32.07-3.86.07H51.57v67.3H67.78V51.56a35.91,35.91,0,0,1,.77-7.6,22.15,22.15,0,0,1,2.14-6,11.86,11.86,0,0,1,3.1-3.79,5.61,5.61,0,0,1,3.46-1.24,2.53,2.53,0,0,1,2.53,1.23c.42.73.91,2.34.91,5.85V91.79H96.9V51.43a33.82,33.82,0,0,1,.81-7.58,23.81,23.81,0,0,1,2.19-6A11.64,11.64,0,0,1,103,34a5.63,5.63,0,0,1,3.53-1.24,2.77,2.77,0,0,1,2.64,1.33c.45.75,1,2.38,1,5.88V91.79h16.21V39.32c0-5-1.24-9-3.7-12a12.61,12.61,0,0,0-10.18-4.55"></path>
          <path id="path22" class="cls-1" d="M224,35a14.2,14.2,0,0,0-2.36-8.58,8.28,8.28,0,0,0-7-3.37c-4.7,0-8.7,2.95-11.94,8.8V22.49L201,23c-1.52.43-2.73.73-3.6.9s-1.73.32-2.57.45a23.87,23.87,0,0,1-2.76.24c-1.05.05-2.44.07-4.26.07h-1.33V91.79h16.21V51.56A31.82,31.82,0,0,1,203,46.9a41.65,41.65,0,0,1,1-4.9,39.18,39.18,0,0,1,1.54-4.44,17.31,17.31,0,0,1,1.79-3.34,2.48,2.48,0,0,1,2.11-1.17c.74,0,1.86,0,1.86,2.6,0,.58,0,1.15-.05,1.68s-.13,1.15-.26,1.87-.36,1.78-.62,3-.62,2.78-1.06,4.7L209,48.52h12.77l.25-1c.76-3,1.28-5.43,1.55-7.21A36.19,36.19,0,0,0,224,35"></path>
          <path id="path24" class="cls-1" d="M173.42,27.9a15.12,15.12,0,0,0-10.95-4.85A15.55,15.55,0,0,0,152,27.46a15.85,15.85,0,0,0-2.91,3.5c-.06.11-.13.22-.2.33V22.58L147.3,23l-3.86.85c-1,.21-1.9.38-2.76.51a25.76,25.76,0,0,1-2.77.24c-1,.05-2.32.07-3.86.07h-1.33v89.06h16.2V87.79c.25.31.5.59.74.87A15.69,15.69,0,0,0,153,91.52a12.11,12.11,0,0,0,3.9,1.55,22.81,22.81,0,0,0,4.64.42c6.62,0,11.85-3.22,15.53-9.58,3.55-6.12,5.35-14.68,5.35-25.44a65.88,65.88,0,0,0-2.16-18.21,29.33,29.33,0,0,0-6.86-12.36Zm-15.73,4.24a4.6,4.6,0,0,1,2.74,1,6.78,6.78,0,0,1,2.2,2.86,24.9,24.9,0,0,1,2.14,7.88,107.06,107.06,0,0,1,.67,13.49c0,5.25-.17,9.77-.5,13.42a39.86,39.86,0,0,1-1.59,8.66,9.75,9.75,0,0,1-2.55,4.38,5.39,5.39,0,0,1-3.67,1.25,5.6,5.6,0,0,1-4.94-2.59,13.57,13.57,0,0,1-1.66-3,18.15,18.15,0,0,1-1-3.9,54.11,54.11,0,0,1-.55-5.87c-.11-2.31-.17-5.23-.17-8.7,0-3.63.06-6.78.17-9.35s.3-4.8.56-6.68a30.88,30.88,0,0,1,1-4.69,19.6,19.6,0,0,1,1.54-3.62c1.66-3.05,3.5-4.53,5.64-4.53"></path>
          <path id="path26" class="cls-1" d="M610.19,67.77c.22,2.21.33,4.11.33,5.64a14.36,14.36,0,0,1-3.09,9.5,9.53,9.53,0,0,1-7.71,3.59A9.91,9.91,0,0,1,595,85.28a7.85,7.85,0,0,1-3.26-3.08,22.77,22.77,0,0,1-1.61-3.54A25.43,25.43,0,0,1,589,74.3a52.33,52.33,0,0,1-.6-6.13c-.1-2.06-.19-4.6-.26-7.59h30.33V59.25c0-3.94-.13-7.48-.4-10.54a49.88,49.88,0,0,0-1.33-8.15,30,30,0,0,0-2.49-6.45,26.5,26.5,0,0,0-3.8-5.38,17.21,17.21,0,0,0-6.17-4.27,19.44,19.44,0,0,0-7.57-1.54,21.22,21.22,0,0,0-10.59,2.72A24.45,24.45,0,0,0,578,33.27a38.26,38.26,0,0,0-5.09,11.54,57.3,57.3,0,0,0-1.79,14.83c0,10.57,2.27,18.88,6.76,24.68s11.14,8.91,19.51,8.91a24.35,24.35,0,0,0,11.51-2.58,17,17,0,0,0,7.4-7.47,21.1,21.1,0,0,0,1.87-5.6,61.69,61.69,0,0,0,.75-7.91l0-1-9-2.9Zm-14-37.86c.91,0,3.67,0,5.42,5.6A39.12,39.12,0,0,1,603,42.67c.27,2.62.48,6.07.63,10.27H588.17c.08-2.17.18-4,.3-5.58q.22-2.79.45-4.8c.15-1.32.32-2.43.49-3.3s.39-1.7.59-2.4a14.11,14.11,0,0,1,2.88-5.34,4.55,4.55,0,0,1,3.35-1.61"></path>
          <path id="path28" class="cls-1" d="M660.43,59.75a29.4,29.4,0,0,0-2-2.35,17.85,17.85,0,0,0-2.62-2.19,35.41,35.41,0,0,0-3.52-2.12c-1.32-.7-2.93-1.53-4.85-2.52-5-2.37-8.55-4.53-10.47-6.42a8.18,8.18,0,0,1-2.65-6,8,8,0,0,1,2.43-5.93,7.87,7.87,0,0,1,5.83-2.43,9,9,0,0,1,4.73,1.38,10.34,10.34,0,0,1,3.57,3.54A12.34,12.34,0,0,1,652,37.9a19.81,19.81,0,0,1,.37,4.18v1a14.66,14.66,0,0,1-.1,1.48l-.24,1.91L662,44l-.06-1.11a34.12,34.12,0,0,0-1-7.23,16.34,16.34,0,0,0-2.86-5.55c-3.49-4.71-8.63-7.09-15.29-7.09a25.46,25.46,0,0,0-8.94,1.52,20.89,20.89,0,0,0-7.05,4.35,20.45,20.45,0,0,0-6.34,15,20.08,20.08,0,0,0,4.41,12.83c2.86,3.59,7.36,6.87,13.4,9.75a65.07,65.07,0,0,1,5.85,3.08,18.33,18.33,0,0,1,3.47,2.61,6.22,6.22,0,0,1,1.54,2.43,10,10,0,0,1,.45,3.13,8.29,8.29,0,0,1-2.33,6.14,8,8,0,0,1-6,2.36,11.27,11.27,0,0,1-4.65-1,12.23,12.23,0,0,1-3.92-2.78A13.42,13.42,0,0,1,629,73.15a16.6,16.6,0,0,1,.15-2.12c.12-.82.25-1.76.4-2.8l.28-2-10.41,2.56,0,1.07a36.71,36.71,0,0,0,1.06,8.92A18.15,18.15,0,0,0,624,85.38c4.08,5.21,10.25,7.85,18.31,7.85a29.84,29.84,0,0,0,6.5-.69,18.15,18.15,0,0,0,5.47-2.12,19.26,19.26,0,0,0,7.15-7.66A22.61,22.61,0,0,0,664.08,72a21.7,21.7,0,0,0-3.65-12.22"></path>
          <path id="path30" class="cls-1" d="M369.93.91c-1,.17-2,.32-2.87.45a25.91,25.91,0,0,1-2.72.25c-.94,0-2.19.07-3.8.07H359.2V30.09a18,18,0,0,0-3.55-4.36A12.82,12.82,0,0,0,347,22.78c-5.22,0-9.74,2.33-13.44,6.91-4.92,5.9-7.42,15.4-7.42,28.25,0,11.1,1.69,19.79,5,25.82,3.47,6.28,8.57,9.47,15.16,9.47a24.44,24.44,0,0,0,4.72-.42,12.49,12.49,0,0,0,4-1.54,16,16,0,0,0,3.4-2.79c.24-.26.49-.54.73-.84v4.15h16.21V0l-1.54.25-3.94.66ZM356.35,35.28a17.11,17.11,0,0,1,1.51,3.32,23.91,23.91,0,0,1,.9,4.46c.22,1.83.39,4.08.5,6.7s.17,5.93.17,9.68,0,6.79-.11,9.25a51.24,51.24,0,0,1-.49,6,20.18,20.18,0,0,1-1,4,17.19,17.19,0,0,1-1.65,3.18,7,7,0,0,1-2.18,2,5.39,5.39,0,0,1-6-.34,6.54,6.54,0,0,1-2.33-2.89,25,25,0,0,1-2-8.06,142.84,142.84,0,0,1-.55-14.37c0-9.59.68-16.63,2-20.92,1.8-5.74,4.54-5.74,5.45-5.74a5.65,5.65,0,0,1,3.06,1,8.3,8.3,0,0,1,2.68,2.83"></path>
          <path id="path32" class="cls-1" d="M572.79,35c0-3.58-.79-6.47-2.36-8.58a8.28,8.28,0,0,0-7-3.37c-4.7,0-8.7,2.95-11.94,8.8V22.49l-1.69.47c-1.52.43-2.73.73-3.6.9s-1.73.32-2.57.45a23.87,23.87,0,0,1-2.76.24c-1.05.05-2.44.07-4.26.07h-1.33V91.79h16.21V51.56a32,32,0,0,1,.38-4.66,42.09,42.09,0,0,1,1-4.9,39.18,39.18,0,0,1,1.54-4.44,17.31,17.31,0,0,1,1.79-3.34,2.48,2.48,0,0,1,2.11-1.17c.74,0,1.86,0,1.86,2.6,0,.58,0,1.15-.05,1.69a17.15,17.15,0,0,1-.26,1.87c-.15.77-.36,1.77-.62,3s-.62,2.78-1.06,4.7l-.39,1.63h12.77l.25-1c.76-3,1.28-5.43,1.55-7.21a36,36,0,0,0,.41-5.31"></path>
          <path id="path34" class="cls-1" d="M506.17,22.92c-7.92,0-14.18,3.12-18.59,9.27s-6.5,14.55-6.5,25.36c0,11.41,2.13,20.27,6.32,26.32,4.3,6.21,10.61,9.36,18.77,9.36,8,0,14.27-3.15,18.6-9.35s6.38-14.74,6.38-25.81S529,38.21,524.77,32.2c-4.34-6.16-10.59-9.28-18.6-9.28ZM512,80.56c-1.93,6.2-4.86,6.2-5.83,6.2s-4.12,0-6-6.2c-1.39-4.6-2.1-12.3-2.1-22.88,0-10.13.73-17.59,2.15-22.15,1.93-6.15,4.86-6.15,5.83-6.15s3.9,0,5.88,6.22c1.47,4.62,2.21,12.18,2.21,22.47s-.73,17.87-2.15,22.49"></path>
          <path id="path36" class="cls-1" d="M418.34,67.77c.22,2.23.34,4.12.34,5.64a14.37,14.37,0,0,1-3.09,9.5,9.53,9.53,0,0,1-7.71,3.59,9.85,9.85,0,0,1-4.75-1.22,7.82,7.82,0,0,1-3.27-3.08,23.83,23.83,0,0,1-1.61-3.54,26.22,26.22,0,0,1-1.07-4.36,50.49,50.49,0,0,1-.61-6.13c-.1-2.14-.18-4.68-.25-7.59h30.33V59.25c0-3.93-.14-7.47-.4-10.54a48.76,48.76,0,0,0-1.34-8.15,30.57,30.57,0,0,0-2.48-6.45,26.9,26.9,0,0,0-3.8-5.38,17.3,17.3,0,0,0-6.17-4.27,19.48,19.48,0,0,0-7.57-1.54,21.22,21.22,0,0,0-10.59,2.72,24.26,24.26,0,0,0-8.12,7.63,38.27,38.27,0,0,0-5.1,11.54,57.3,57.3,0,0,0-1.79,14.83c0,10.57,2.28,18.88,6.77,24.68s11.13,8.91,19.5,8.91a24.39,24.39,0,0,0,11.52-2.58,17.06,17.06,0,0,0,7.4-7.47,21.32,21.32,0,0,0,1.86-5.6,60,60,0,0,0,.76-7.91l0-1-9-2.9Zm-14-37.86c.91,0,3.68,0,5.43,5.6a40.9,40.9,0,0,1,1.31,7.16c.27,2.63.48,6.08.63,10.27H396.33c.07-2.16.17-4,.3-5.58.15-1.86.3-3.46.45-4.81s.31-2.42.49-3.29.38-1.69.59-2.4A14.11,14.11,0,0,1,401,31.52a4.56,4.56,0,0,1,3.35-1.61"></path>
          <path id="path38" class="cls-1" d="M471.83.91c-1,.17-2,.32-2.87.45a26,26,0,0,1-2.71.25c-.95,0-2.19.07-3.81.07h-1.33V30.09a18.25,18.25,0,0,0-3.55-4.36,12.86,12.86,0,0,0-8.66-2.95c-5.22,0-9.74,2.33-13.44,6.91-4.92,5.9-7.42,15.4-7.42,28.25,0,11.1,1.69,19.79,5,25.82,3.47,6.28,8.57,9.47,15.16,9.47a24.37,24.37,0,0,0,4.72-.42,12.55,12.55,0,0,0,4-1.54,16.16,16.16,0,0,0,3.39-2.79c.24-.26.49-.54.74-.84v4.15h16.21V0l-1.55.25-3.94.66ZM458.25,35.28a16.42,16.42,0,0,1,1.51,3.33,24,24,0,0,1,.91,4.45c.22,1.83.38,4.08.5,6.7s.16,5.91.16,9.68,0,6.75-.11,9.25a49.14,49.14,0,0,1-.49,6,20.18,20.18,0,0,1-1,4,16.6,16.6,0,0,1-1.65,3.18,6.89,6.89,0,0,1-2.18,2,5.37,5.37,0,0,1-5.95-.34,6.53,6.53,0,0,1-2.33-2.89,25.08,25.08,0,0,1-2-8.06A142.15,142.15,0,0,1,445,58.14c0-9.59.68-16.63,2-20.92,1.79-5.74,4.54-5.74,5.44-5.74a5.71,5.71,0,0,1,3.07,1,8.37,8.37,0,0,1,2.67,2.83"></path>
        </g>
      </g>
    </g>
  </g>
</svg>
